
<svg version="1.1" id="Layer_1" xmlns="http://www.w3.org/2000/svg" xmlns:xlink="http://www.w3.org/1999/xlink" x="0px" y="0px"
     viewBox="0 0 375.1 105.8" style="enable-background:new 0 0 375.1 105.8;" xml:space="preserve">
<style type="text/css">
	.st0{fill:#DC242A;}
	.st1{fill:#FFFFFF;}
	.st2{fill:#ED342E;}
</style>
    <path id="XMLID_87_" class="st2" d="M84.3,14.3c0.5,0.7,1.2,0.3,1.7,0.3c6.6,0.3,13.2,0.5,19.7,1.3c8.9,1.1,13.3,5.3,14.7,14.2
	c1.7,11.5,1.8,23.1,1.2,34.7c-0.2,4.6-0.6,9.2-1.5,13.7c-1.4,7.4-6,11.7-13.4,12.6c-12.3,1.5-24.6,1.6-37,1.7
	c-12.6,0.1-25.3-0.2-37.9-1c-2.9-0.2-5.7-0.5-8.5-1c-6.1-1.1-10.4-5.2-11.7-11.3c-1.1-4.8-1.3-9.8-1.7-14.7c0-0.5,0.3-1.2-0.4-1.6
	c0-6.4,0-12.9,0-19.3c0.6-0.4,0.3-1,0.4-1.6c0.3-4.3,0.6-8.7,1.4-13c1.4-8,5.9-12.4,14-13.4c6.4-0.8,12.9-1,19.4-1.3
	c0.6,0,1.3,0.3,1.7-0.3C59.1,14.3,71.7,14.3,84.3,14.3z M54.7,36.8c0,11.3,0,22.2,0,33.5c9.8-5.6,19.3-11.1,29.1-16.7
	C74,47.9,64.5,42.4,54.7,36.8z"/>
    <path id="XMLID_84_" class="st1" d="M362.4,76c-0.7,0.5-0.3,1.3-0.4,1.9c-1,5.3-4.1,8.4-9.3,9.5c-3.3,0.7-6.6,0.7-9.9-0.2
	c-5-1.4-7.4-5.1-8.5-9.8c-0.4-1.7-0.8-3.5-0.9-5.2c-0.2-8.2-1-16.4,0.8-24.5c1.6-7.1,5.6-10.3,13-10.6c1.6-0.1,3.2-0.1,4.8,0.2
	c5.7,1,8.6,4.2,9.8,10.1c0.2,1.1,0.1,2.2,0.7,3.2c0,5.3,0,10.6,0,15.9c-5.9,0-11.8-0.1-17.7-0.1c-0.5,0-0.9,0.1-0.9,0.8
	c0.1,3.6-0.1,7.1,0.7,10.6c0.4,1.9,1.7,2.8,3.6,2.9c1.9,0,3.1-0.8,3.7-2.7c0.5-1.4,0.7-2.9,0.7-4.4c0-0.9,0.1-1.4,1.2-1.3
	c2.5,0.2,5,0.3,7.6,0.4c0.6,0,0.8,0.4,1.2,0.7C362.4,74.1,362.4,75,362.4,76z M343.9,54.2c0,1.4,0,3,0,4.6c0,0.7,0.1,1.1,0.9,1.1
	c2.1,0,4.2,0,6.4,0c0.5,0,0.9,0,0.9-0.7c-0.1-3.9,0.2-7.8-0.6-11.6c-0.4-2-1.7-2.9-3.7-2.8c-1.7,0-2.6,0.9-3.1,2.8
	C343.9,49.6,344,51.7,343.9,54.2z"/>
    <path id="XMLID_79_" class="st1" d="M307.8,43.2c2-3.1,4.3-5.2,7.6-5.9c4.9-1.2,9.1,0.9,10.9,5.6c1.1,2.8,1.5,5.8,1.6,8.8
	c0.4,7.9,0.7,15.7-0.3,23.6c-0.3,2.3-0.8,4.5-1.7,6.6c-1.4,3.3-3.6,5.8-7.4,6.1c-4.1,0.4-7.7-0.9-10.3-4.3c-0.2-0.3-0.5-0.6-0.8-1.1
	c-0.2,0.4-0.3,0.7-0.4,1c-1,3.7-0.9,3.7-4.6,3.7c-1.3,0-2.6-0.1-4,0c-1.2,0.1-1.5-0.4-1.5-1.5c0-10.5,0-21,0-31.5
	c0-11.7,0-23.4,0-35.1c0-1.6,0.5-1.9,1.9-1.8c2.3,0.1,4.7,0.2,7.1,0c1.7-0.1,1.9,0.5,1.9,2C307.7,27.1,307.8,34.9,307.8,43.2z
	 M316.9,63.2c0-2.8,0.1-5.5,0-8.3c-0.1-2.6-0.2-5.2-1.1-7.6c-0.8-2.3-3-3.1-5.1-1.8c-1.8,1.1-2.8,2.7-2.8,5c0,8.5,0,17,0,25.5
	c0,2.1,1.1,3.4,3.1,3.8c2.2,0.5,3.7-0.3,4.6-2.3c0.3-0.8,0.6-1.6,0.7-2.5C316.9,71.1,316.9,67.1,316.9,63.2z"/>
    <path id="XMLID_78_" class="st1" d="M223.7,81.1c-2,3.6-4.4,5.9-8,6.8c-6.4,1.6-11.2-1.7-12.1-8.2c-0.2-1.8-0.3-3.5-0.3-5.3
	c0-11.5,0-23.1,0-34.6c0-1.3,0.3-1.8,1.7-1.7c2.7,0.1,5.4,0.1,8.1,0c1.2,0,1.5,0.4,1.5,1.5c0,11.2,0,22.4,0,33.6
	c0,1.7,0,3.4,0.5,5.1c0.4,1.3,1.3,2,2.7,2c2.7,0,4.6-1.9,4.6-4.6c0-12,0-24,0-36c0-1.3,0.3-1.6,1.6-1.6c2.8,0.1,5.6,0.1,8.4,0
	c1,0,1.2,0.3,1.2,1.3c0,15.6,0,31.2,0,46.8c0,0.8-0.1,1.3-1.1,1.2c-2.2-0.1-4.5-0.1-6.7,0c-0.8,0-1.1-0.3-1.1-1.1
	C224.3,84.7,224,83.2,223.7,81.1z"/>
    <path id="XMLID_77_" class="st1" d="M280.6,81.1c-1.8,3.3-3.9,5.5-7.1,6.5c-6.9,2.2-12.3-1.5-13.1-8.7c-0.3-3.2-0.3-6.4-0.3-9.6
	c0-9.9,0-19.8,0-29.6c0-1.4,0.4-1.7,1.7-1.7c2.7,0.1,5.4,0.1,8.1,0c1.2,0,1.5,0.3,1.5,1.5c0,11.3,0,22.6,0,33.9c0,1.5-0.1,3,0.4,4.4
	c0.5,1.8,1.4,2.4,3.3,2.3c2.4-0.2,4.1-2,4.1-4.4c0-12,0-24,0-36c0-1.3,0.2-1.8,1.7-1.7c2.8,0.1,5.5,0.1,8.3,0c1,0,1.4,0.2,1.4,1.3
	c0,15.6,0,31.1,0,46.7c0,1-0.2,1.4-1.3,1.4c-2.1-0.1-4.2-0.1-6.4,0c-0.8,0-1.2-0.1-1.3-1.1C281.3,84.7,280.9,83.1,280.6,81.1z"/>
    <path id="XMLID_74_" class="st1" d="M197.6,63.9c-0.1,3.4,0,7.9-0.9,12.4c-1.7,8.3-6.1,11.9-14.5,11.8c-1.8,0-3.5-0.2-5.3-0.6
	c-5.4-1.3-8-5.1-9.2-10.2c-0.5-2.2-0.8-4.4-0.8-6.6c-0.2-7.3-0.6-14.6,0.8-21.8c1.9-9.5,8.1-12.5,17-11.7c7,0.7,10.9,4.2,12.3,13.7
	C197.6,54.8,197.6,58.8,197.6,63.9z M178.1,62.5c0,3.2-0.1,6.3,0,9.5c0.1,2.1,0.2,4.2,1,6.2c0.5,1.3,1.5,2.1,3,2.2
	c1.5,0.1,2.5-0.8,3.1-2.1c0.5-1.1,0.7-2.3,0.8-3.5c0.6-7.4,0.3-14.8,0.2-22.2c0-2-0.2-4-1-5.9c-0.6-1.3-1.6-2.1-3.1-2.1
	c-1.5,0-2.5,0.8-3,2.1c-0.4,1.1-0.6,2.2-0.8,3.3C177.9,54.3,178.2,58.4,178.1,62.5z"/>
    <path id="XMLID_73_" class="st1" d="M133.3,19.8c3.5,0,6.9,0,10.2,0c1,0,0.9,0.7,1.1,1.2c2.2,10.6,4.8,21.2,6.6,31.9
	c0,0.1,0.1,0.2,0.2,0.4c1.1-5.3,2.2-10.6,3.3-15.9c1.2-5.5,2.5-11,3.7-16.6c0.2-0.7,0.3-1.1,1.1-1.1c3.3,0,6.6,0,10.2,0
	c-1.1,3.9-2.1,7.6-3.2,11.3c-3.1,11.1-6.2,22.1-9.3,33.2c-0.2,0.8-0.2,1.6-0.2,2.4c0,6.3,0,12.5,0,18.8c0,1.4-0.3,1.9-1.8,1.8
	c-2.5-0.1-5.1-0.1-7.6,0c-1.3,0.1-1.8-0.3-1.7-1.7c0.1-3.7-0.1-7.4,0.1-11c0.4-6.1-0.8-11.9-2.4-17.7c-3.5-12-6.7-24.1-10.1-36.2
	C133.4,20.5,133.4,20.2,133.3,19.8z"/>
    <path id="XMLID_72_" class="st1" d="M252.5,58.1c0,9.2,0,18.4,0,27.6c0,1.4-0.4,1.7-1.7,1.7c-2.5-0.1-4.9-0.1-7.4,0
	c-1.4,0.1-1.8-0.4-1.8-1.8c0.1-15.4,0-30.8,0-46.2c0-3,0-6.1,0-9.1c0-1.1-0.2-1.5-1.4-1.5c-2.8,0.1-5.5,0-8.3,0.1
	c-1,0-1.4-0.1-1.4-1.3c0.1-2.1,0.1-4.2,0-6.4c0-1,0.2-1.4,1.3-1.4c10.1,0,20.2,0,30.3,0c1.1,0,1.4,0.3,1.3,1.3
	c-0.1,2.2-0.1,4.4,0,6.5c0,0.9-0.3,1.2-1.2,1.1c-2.6-0.1-5.3,0.1-7.9-0.1c-1.5-0.1-2,0.3-2,1.9C252.6,39.8,252.5,48.9,252.5,58.1z"
    />
    <path id="XMLID_71_" class="st1" d="M54.7,36.8c9.7,5.6,19.3,11.1,29.1,16.7c-9.8,5.6-19.4,11.1-29.1,16.7
	C54.7,59,54.7,48.1,54.7,36.8z"/>
</svg>
